PathFileType	4	(X/Y/Z)	/Users/itak/Documents/Research/Walk-IL/dataset/trc/00306_00010.trc
DataRate	CameraRate	NumFrames	NumMarkers	Units	OrigDataRate	OrigDataStartFrame	OrigNumFrames
100.000000	100.000000	4	56	mm	100.000000	371	425
Frame#	Time	RPSI			LPSI			L3			STRN			T10			C7			CLAV			RBAK			LBAK			LSHO			LUPA			LAEL			LAOL			LWPS			LFRA			LIFD			LHPS			LHTS			RSHO			RUPA			RAEL			RAOL			RWTS			RWPS			RFRA			RIFD			RBHD			LFHD			RFHD			LBHD			LHIP			RASI			LASI			LKNE			LTHI			LANK			LTIP			LTOE			LMT1			LMT5			LHEE			RKNE			RTHI			RANK			RTIP			RTOE			RMT1			RMT5			LWTS			RHTS			RHPS			RHEE			RHIP			*53			*54			*55			
		X1	Y1	Z1	X2	Y2	Z2	X3	Y3	Z3	X4	Y4	Z4	X5	Y5	Z5	X6	Y6	Z6	X7	Y7	Z7	X8	Y8	Z8	X9	Y9	Z9	X10	Y10	Z10	X11	Y11	Z11	X12	Y12	Z12	X13	Y13	Z13	X14	Y14	Z14	X15	Y15	Z15	X16	Y16	Z16	X17	Y17	Z17	X18	Y18	Z18	X19	Y19	Z19	X20	Y20	Z20	X21	Y21	Z21	X22	Y22	Z22	X23	Y23	Z23	X24	Y24	Z24	X25	Y25	Z25	X26	Y26	Z26	X27	Y27	Z27	X28	Y28	Z28	X29	Y29	Z29	X30	Y30	Z30	X31	Y31	Z31	X32	Y32	Z32	X33	Y33	Z33	X34	Y34	Z34	X35	Y35	Z35	X36	Y36	Z36	X37	Y37	Z37	X38	Y38	Z38	X39	Y39	Z39	X40	Y40	Z40	X41	Y41	Z41	X42	Y42	Z42	X43	Y43	Z43	X44	Y44	Z44	X45	Y45	Z45	X46	Y46	Z46	X47	Y47	Z47	X48	Y48	Z48	X49	Y49	Z49	X50	Y50	Z50	X51	Y51	Z51	X52	Y52	Z52	X53	Y53	Z53	X54	Y54	Z54	X55	Y55	Z55	X56	Y56	Z56	

372	3.71	526.1636352539062	996.4283447265625	-265.8539123535156	350.2489318847656	980.4208374023438	-261.0686340332031	442.3059387207031	1064.047241210938	-276.5888977050781	414.7796325683594	1246.179809570312	-522.2283935546875	452.9527282714844	1176.126220703125	-262.4660339355469	432.4866943359375	1421.857177734375	-295.6518249511719	416.9809265136719	1343.4951171875	-454.9821472167969	517.8623657226562	1284.946166992188	-260.5820007324219	331.50244140625	1382.533813476562	-267.4857788085938	264.3540344238281	1390.748291015625	-350.0938720703125	196.8493957519531	1271.122680664062	-316.5230102539062	185.7433319091797	1066.305297851562	-324.6908569335938	254.870361328125	1055.290649414062	-272.7843017578125	167.6880950927734	830.7374267578125	-360.0656433105469	176.9093322753906	962.143798828125	-335.0665588378906	229.7052459716797	656.977783203125	-389.6744689941406	172.7169494628906	741.9031982421875	-357.3939514160156	205.89111328125	739.8053588867188	-414.4196166992188	577.4461059570312	1403.109252929688	-389.9035949707031	641.8779907226562	1342.695190429688	-408.2250061035156	668.0354614257812	1091.211791992188	-518.7625122070312	601.231689453125	1067.504272460938	-458.208251953125	508.8736572265625	999.9121704101562	-691.8179321289062	584.046142578125	962.24462890625	-706.1137084960938	649.2843017578125	1054.570922851562	-582.2241821289062	432.3194580078125	885.0289306640625	-815.9562377929688	503.1065673828125	1569.343872070312	-314.6467590332031	362.5031433105469	1640.247192382812	-457.5800476074219	455.0452575683594	1637.367309570312	-471.0104064941406	358.2962341308594	1564.64306640625	-297.9243774414062	251.3640289306641	931.104736328125	-335.2270812988281	546.0171508789062	957.8892211914062	-490.12109375	299.596435546875	953.1378173828125	-469.2784118652344	250.5934448242188	485.5830383300781	-489.1914978027344	239.7299346923828	623.6491088867188	-447.849365234375	268.6136169433594	61.0485954284668	-326.0429382324219	247.8423461914062	267.3475341796875	-406.3537902832031	315.2090148925781	37.74475860595703	-530.8707885742188	357.871337890625	27.83133697509766	-462.5663452148438	249.6606903076172	45.46039199829102	-445.4564819335938	329.4417114257812	57.55012130737305	-281.0552368164062	564.0578002929688	478.7572021484375	-405.8827514648438	607.4030151367188	739.8198852539062	-435.5871276855469	510.8402099609375	37.72304534912109	-334.5702819824219	541.2183837890625	355.4599609375	-411.2002563476562	441.5876159667969	38.50101470947266	-527.35546875	408.4313049316406	41.24300765991211	-466.1564636230469	522.3623046875	26.05129051208496	-437.5221862792969	226.5296020507812	839.9315185546875	-401.4481201171875	470.0722351074219	947.493408203125	-793.011962890625	531.7229614257812	911.1930541992188	-792.4290161132812	465.2648620605469	41.74202346801758	-279.3624267578125	623.77587890625	950.1889038085938	-374.7601013183594	nan	nan	nan	nan	nan	nan	nan	nan	nan	
373	3.72	525.2659301757812	996.6461791992188	-267.3695678710938	349.158447265625	980.5221557617188	-262.8452453613281	441.2467956542969	1063.911499023438	-278.0926513671875	414.1311950683594	1245.959838867188	-523.645751953125	451.5552673339844	1175.856689453125	-263.8788757324219	430.8441772460938	1421.67529296875	-296.8974914550781	416.0502014160156	1343.316772460938	-456.4159545898438	516.1957397460938	1284.826782226562	-261.5294799804688	329.7293090820312	1382.14404296875	-269.1568298339844	262.629150390625	1390.378295898438	-352.2345275878906	195.3378753662109	1270.46240234375	-319.6797180175781	184.7420806884766	1065.777465820312	-329.7139892578125	252.3633422851562	1054.551025390625	-276.0312194824219	167.6345672607422	830.1657104492188	-366.4082336425781	175.9835662841797	961.6182861328125	-340.8633728027344	231.1017608642578	656.3511962890625	-392.9122619628906	172.3623809814453	741.2760009765625	-363.5150146484375	208.2518615722656	739.0347900390625	-418.6680297851562	576.2783203125	1402.982055664062	-390.6443176269531	640.7044067382812	1342.337158203125	-408.41064453125	667.3844604492188	1089.658447265625	-516.1539916992188	600.9494018554688	1066.64990234375	-454.9801330566406	506.4205932617188	997.0897216796875	-686.4420776367188	581.3469848632812	959.2472534179688	-701.6009521484375	648.2660522460938	1052.4345703125	-579.0791625976562	427.2151184082031	881.1568603515625	-807.7510375976562	501.6076965332031	1569.106689453125	-315.42333984375	361.2912902832031	1640.29248046875	-458.4983825683594	453.8244018554688	1637.412841796875	-471.7613525390625	356.7713012695312	1564.408569335938	-298.9728698730469	250.3997650146484	930.5883178710938	-337.0726928710938	545.0555419921875	957.7894287109375	-491.400634765625	299.0093688964844	952.5926513671875	-470.9579467773438	251.3300933837891	484.1980285644531	-486.3665161132812	239.9846343994141	622.6347045898438	-446.622314453125	268.5278625488281	58.92272567749023	-325.4801635742188	248.2046051025391	265.61474609375	-404.4136657714844	315.1731872558594	36.55304718017578	-531.0464477539062	357.9786071777344	27.25762557983398	-462.3002624511719	249.5124816894531	44.47280120849609	-445.094482421875	329.3513488769531	54.82333755493164	-280.3855285644531	563.7093505859375	478.7127990722656	-405.9946899414062	606.7940063476562	739.714111328125	-436.4098815917969	510.8704528808594	37.67096328735352	-334.5164794921875	540.9910888671875	355.468017578125	-411.1201477050781	441.6076965332031	38.53437805175781	-527.2897338867188	408.435546875	41.25442504882812	-466.1011962890625	522.3654174804688	26.00852203369141	-437.4830627441406	228.3737030029297	839.1287841796875	-405.0202941894531	465.6234741210938	943.7347412109375	-786.2153930664062	527.0488891601562	906.9679565429688	-786.3600463867188	465.3090515136719	41.57231140136719	-279.2761535644531	623.0908203125	950.3182373046875	-376.0536499023438	nan	nan	nan	nan	nan	nan	nan	nan	nan	
374	3.73	524.3734741210938	996.8948974609375	-268.8843383789062	348.1278991699219	980.7192993164062	-264.5332946777344	440.1917419433594	1063.791625976562	-279.5726928710938	413.4061279296875	1245.760864257812	-525.0143432617188	450.14892578125	1175.650390625	-265.2341003417969	429.1749877929688	1421.548217773438	-298.1136779785156	415.0480346679688	1343.16357421875	-457.8106994628906	514.5175170898438	1284.7666015625	-262.4358520507812	327.9375	1381.821044921875	-270.7630920410156	260.8766174316406	1390.065673828125	-354.326416015625	193.7724914550781	1269.939575195312	-322.7344055175781	183.4953765869141	1065.478271484375	-334.6127319335938	249.5524749755859	1053.900268554688	-279.173095703125	167.1904144287109	829.8660278320312	-372.7782287597656	174.6437683105469	961.2910766601562	-346.5618896484375	231.1293640136719	655.78515625	-395.7210998535156	171.1572418212891	740.9703979492188	-369.7484741210938	210.1119995117188	738.4122924804688	-422.5707397460938	575.0613403320312	1402.873901367188	-391.39990234375	639.4844970703125	1342.016235351562	-408.5859375	666.7168579101562	1088.170043945312	-513.4353637695312	600.5277709960938	1065.851318359375	-451.6748352050781	504.3401489257812	993.7760620117188	-680.91455078125	579.06982421875	955.8026733398438	-696.72216796875	647.3202514648438	1050.119018554688	-575.646728515625	422.7655334472656	876.4000854492188	-799.0574951171875	500.0536499023438	1568.901977539062	-316.1445007324219	360.0297546386719	1640.388549804688	-459.3543395996094	452.5563659667969	1637.509399414062	-472.4464416503906	355.1839599609375	1564.210815429688	-299.9755859375	249.45947265625	930.22265625	-338.7504577636719	544.0844116210938	957.685791015625	-492.69140625	298.3713684082031	952.108154296875	-472.5452270507812	252.09033203125	482.9686279296875	-483.401611328125	240.2182922363281	621.7614135742188	-445.2575378417969	268.3431396484375	56.90546798706055	-324.9201049804688	248.4885406494141	264.0432434082031	-402.4432983398438	315.0603332519531	35.75467300415039	-531.1478881835938	358.0450134277344	26.93132781982422	-462.0669250488281	249.3174438476562	43.64169692993164	-444.7332153320312	329.1607055664062	52.17566299438477	-279.7277221679688	563.3118286132812	478.6796264648438	-406.0697021484375	606.1517333984375	739.61474609375	-437.2122802734375	510.9024963378906	37.63310623168945	-334.4713745117188	540.7396240234375	355.4923400878906	-411.0159606933594	441.6297607421875	38.56930923461914	-527.2251586914062	408.4360656738281	41.26278686523438	-466.0425720214844	522.3673706054688	25.97530937194824	-437.4469909667969	229.7640686035156	838.4735717773438	-408.2827453613281	461.747314453125	939.1804809570312	-779.1051025390625	522.7061767578125	901.7379760742188	-779.6259155273438	465.3515319824219	41.39964294433594	-279.1824035644531	622.3975830078125	950.4436645507812	-377.3566589355469	nan	nan	nan	nan	nan	nan	nan	nan	nan	
375	3.74	523.4962158203125	997.1881103515625	-270.4017333984375	347.1748962402344	981.0428466796875	-266.1287841796875	439.1329650878906	1063.691528320312	-281.0531921386719	412.6144714355469	1245.596557617188	-526.336669921875	448.7405395507812	1175.522705078125	-266.5320739746094	427.4917602539062	1421.487182617188	-299.3013610839844	413.9884643554688	1343.049560546875	-459.1649780273438	512.8346557617188	1284.78125	-263.2961120605469	326.1429443359375	1381.578735351562	-272.3056030273438	259.1463012695312	1389.819702148438	-356.3521118164062	192.1529846191406	1269.569091796875	-325.6618957519531	181.9742431640625	1065.391967773438	-339.3296508789062	246.4585571289062	1053.358032226562	-282.2090454101562	166.3948974609375	829.8349609375	-379.1191711425781	172.9227905273438	961.1511840820312	-352.0888366699219	229.7850036621094	655.2693481445312	-398.0697631835938	169.1806030273438	740.9901123046875	-376.0296020507812	211.4454803466797	737.9201049804688	-426.0885620117188	573.8059692382812	1402.79345703125	-392.1712036132812	638.228759765625	1341.746215820312	-408.7595520019531	666.0425415039062	1086.757202148438	-510.599609375	599.9716796875	1065.136474609375	-448.2940063476562	502.6474304199219	989.98681640625	-675.2840576171875	577.2299194335938	951.9151611328125	-691.491455078125	646.4476318359375	1047.651733398438	-571.9490356445312	419.0364685058594	870.7638549804688	-789.947998046875	498.4553527832031	1568.743530273438	-316.81884765625	358.7202758789062	1640.54052734375	-460.1523132324219	451.2444763183594	1637.668823242188	-473.0726928710938	353.5530700683594	1564.056884765625	-300.9366455078125	248.5862579345703	930.091796875	-340.1968383789062	543.1091918945312	957.58056640625	-494.0001525878906	297.678955078125	951.7113647460938	-474.0232238769531	252.8704223632812	481.9192810058594	-480.3148803710938	240.4035034179688	621.0529174804688	-443.7672424316406	268.1018981933594	55.02945709228516	-324.3669128417969	248.7176361083984	262.6551513671875	-400.4610595703125	314.91748046875	35.29861068725586	-531.1617431640625	358.0850830078125	26.77544593811035	-461.8591613769531	249.1172637939453	42.96053314208984	-444.3827819824219	328.9055786132812	49.65906524658203	-279.1019287109375	562.874755859375	478.6665649414062	-406.1087341308594	605.4817504882812	739.525390625	-437.9998779296875	510.936279296875	37.60759735107422	-334.4342041015625	540.4664916992188	355.53759765625	-410.8944091796875	441.6527099609375	38.60452270507812	-527.1632690429688	408.4343566894531	41.27021789550781	-465.9829406738281	522.3685913085938	25.95355606079102	-437.4175415039062	230.7059631347656	837.9657592773438	-411.2430419921875	458.4963073730469	933.8238525390625	-771.74169921875	518.8341674804688	895.613037109375	-772.2965698242188	465.3932800292969	41.23458480834961	-279.0845031738281	621.699951171875	950.5675048828125	-378.6755981445312	nan	nan	nan	nan	nan	nan	nan	nan	nan	
